<svg width="40" height="39" viewBox="0 0 40 39" fill="none" xmlns="http://www.w3.org/2000/svg">
<path d="M17.4527 15.0139C17.4527 16.1184 16.5573 17.0139 15.4527 17.0139H4.49328C3.38871 17.0139 2.49329 16.1184 2.49329 15.0139V4.43054C2.49329 3.32597 3.38872 2.43054 4.49329 2.43054H15.4527C16.5573 2.43054 17.4527 3.32597 17.4527 4.43054V15.0139ZM4.98653 12.5833C4.98653 13.6879 5.88196 14.5833 6.98653 14.5833H12.9595C14.0641 14.5833 14.9595 13.6879 14.9595 12.5833V6.8611C14.9595 5.75653 14.0641 4.8611 12.9595 4.8611H6.98653C5.88196 4.8611 4.98653 5.75653 4.98653 6.8611V12.5833Z" fill="black"/>
<path d="M17.1756 34.3612C17.1756 35.4657 16.2802 36.3612 15.1756 36.3612H4.21618C3.11161 36.3612 2.21619 35.4657 2.21619 34.3612V23.7778C2.21619 22.6733 3.11162 21.7778 4.21619 21.7778H15.1756C16.2802 21.7778 17.1756 22.6733 17.1756 23.7778V34.3612ZM4.70943 31.9306C4.70943 33.0352 5.60486 33.9306 6.70943 33.9306H12.6824C13.787 33.9306 14.6824 33.0352 14.6824 31.9306V26.2084C14.6824 25.1038 13.787 24.2084 12.6824 24.2084H6.70943C5.60486 24.2084 4.70943 25.1038 4.70943 26.2084V31.9306Z" fill="#0F0E0E"/>
<path d="M29.6418 33.9306V31.5001H32.1351V33.9306H29.6418ZM22.1621 29.0695V26.6389H24.6554V29.0695H22.1621ZM22.1621 36.3612H27.1486V33.9306H24.6554V31.5001H22.1621V36.3612ZM32.1351 31.5001V26.6389H34.6283V31.5001H32.1351ZM34.6283 31.5001H37.1216V36.3612H32.1351V33.9306H34.6283V31.5001ZM32.1351 24.2084V21.7778H37.1216V26.6389H34.6283V24.2084H32.1351ZM29.6418 24.2084H27.1486V29.0695H24.6554V31.5001H29.6418V24.2084ZM22.1621 24.2084V21.7778H27.1486V24.2084H22.1621Z" fill="black"/>
<path d="M37.3063 15.1112C37.3063 16.2157 36.4108 17.1112 35.3063 17.1112H24.1621C23.0575 17.1112 22.1621 16.2157 22.1621 15.1112V4.33338C22.1621 3.22881 23.0575 2.33337 24.1621 2.33337H35.3063C36.4108 2.33337 37.3063 3.2288 37.3063 4.33337V15.1112ZM24.6861 12.6482C24.6861 13.7528 25.5816 14.6482 26.6861 14.6482H32.7822C33.8868 14.6482 34.7822 13.7528 34.7822 12.6482V6.79634C34.7822 5.69177 33.8868 4.79634 32.7822 4.79634H26.6861C25.5816 4.79634 24.6861 5.69177 24.6861 6.79634V12.6482Z" fill="black"/>
<path d="M33.2433 6.22217H26.5946V12.4444H33.2433V6.22217Z" fill="#BA1916"/>
<path d="M13.2973 25.6666H6.64868V31.8888H13.2973V25.6666Z" fill="#BA1916"/>
<path d="M13.2973 6.22217H6.64868V12.4444H13.2973V6.22217Z" fill="#BA1916"/>
</svg>
